<svg width="47" height="46" viewBox="0 0 47 46" fill="none" xmlns="http://www.w3.org/2000/svg">
<path d="M23.1348 23C22.0831 25.0417 20.673 26.8777 18.9718 28.4204C17.8996 29.4928 16.5336 30.2232 15.0463 30.5192C13.5591 30.8152 12.0174 30.6635 10.6164 30.0833C9.21538 29.5031 8.01787 28.5205 7.17534 27.2597C6.33282 25.9988 5.88312 24.5165 5.88312 23C5.88312 21.4836 6.33282 20.0013 7.17534 18.7404C8.01787 17.4796 9.21538 16.4969 10.6164 15.9167C12.0174 15.3365 13.5591 15.1849 15.0463 15.4809C16.5336 15.7769 17.8996 16.5073 18.9718 17.5797C20.673 19.1225 22.0831 20.9584 23.1348 23ZM23.1348 23C24.1864 20.9584 25.5965 19.1225 27.2978 17.5797C28.3699 16.5073 29.7359 15.7769 31.2232 15.4809C32.7104 15.1849 34.2521 15.3365 35.6531 15.9167C37.0541 16.4969 38.2516 17.4796 39.0942 18.7404C39.9367 20.0013 40.3864 21.4836 40.3864 23C40.3864 24.5165 39.9367 25.9988 39.0942 27.2597C38.2516 28.5205 37.0541 29.5031 35.6531 30.0833C34.2521 30.6635 32.7104 30.8152 31.2232 30.5192C29.7359 30.2232 28.3699 29.4928 27.2978 28.4204C25.5965 26.8777 24.1864 25.0417 23.1348 23Z" stroke="black" stroke-linecap="round" stroke-linejoin="round"/>
</svg>
